<?xml version="1.0" encoding="utf-8"?>
<svg xmlns="http://www.w3.org/2000/svg" width="33.9077mm" height="49.0535mm" version="1.1" style="shape-rendering:geometricPrecision; text-rendering:geometricPrecision; image-rendering:optimizeQuality; fill-rule:evenodd; clip-rule:evenodd" viewBox="0 0 3386.43 4899.07" xmlns:bx="https://boxy-svg.com" preserveAspectRatio="none"><defs><style type="text/css">
   
    .fil72 {fill:#051351}
    .fil71 {fill:#051352}
    .fil70 {fill:#051452}
    .fil69 {fill:#051453}
    .fil68 {fill:#061453}
    .fil67 {fill:#061554}
    .fil66 {fill:#061555}
    .fil65 {fill:#061655}
    .fil64 {fill:#061656}
    .fil63 {fill:#071656}
    .fil62 {fill:#071657}
    .fil61 {fill:#071757}
    .fil60 {fill:#071758}
    .fil59 {fill:#071859}
    .fil58 {fill:#07185A}
    .fil57 {fill:#08185A}
    .fil56 {fill:#08195A}
    .fil55 {fill:#08195B}
    .fil54 {fill:#08195C}
    .fil53 {fill:#081A5C}
    .fil52 {fill:#081A5D}
    .fil51 {fill:#091A5E}
    .fil50 {fill:#091B5E}
    .fil49 {fill:#091B5F}
    .fil48 {fill:#091C5F}
    .fil47 {fill:#091C60}
    .fil46 {fill:#091C61}
    .fil0 {fill:#0A195A}
    .fil45 {fill:#0A1D61}
    .fil44 {fill:#0A1D62}
    .fil43 {fill:#0A1E63}
    .fil42 {fill:#0A1E64}
    .fil41 {fill:#0A1F64}
    .fil40 {fill:#0B1F65}
    .fil39 {fill:#0B1F66}
    .fil38 {fill:#0B2066}
    .fil37 {fill:#0B2067}
    .fil36 {fill:#0B2068}
    .fil35 {fill:#0B2168}
    .fil34 {fill:#0C2168}
    .fil33 {fill:#0C2169}
    .fil32 {fill:#0C2269}
    .fil31 {fill:#0C226A}
    .fil30 {fill:#0C226B}
    .fil29 {fill:#0C236B}
    .fil28 {fill:#0C236C}
    .fil27 {fill:#0D236C}
    .fil26 {fill:#0D246D}
    .fil25 {fill:#0D246E}
    .fil24 {fill:#0D256F}
    .fil23 {fill:#0E256F}
    .fil22 {fill:#0E2570}
    .fil21 {fill:#0E2670}
    .fil20 {fill:#0E2671}
    .fil19 {fill:#0E2672}
    .fil18 {fill:#0E2772}
    .fil17 {fill:#0E2773}
    .fil16 {fill:#0F2773}
    .fil15 {fill:#0F2873}
    .fil14 {fill:#0F2874}
    .fil13 {fill:#0F2875}
    .fil12 {fill:#0F2975}
    .fil11 {fill:#0F2976}
    .fil10 {fill:#102977}
    .fil9 {fill:#102A77}
    .fil8 {fill:#102A78}
    .fil7 {fill:#102B79}
    .fil6 {fill:#102B7A}
    .fil5 {fill:#112C7A}
    .fil4 {fill:#112C7B}
    .fil3 {fill:#112C7C}
    .fil2 {fill:#112D7C}
    .fil73 {fill:#112D7D}
    .fil74 {fill:#112E7D}
    .fil75 {fill:#122E7E}
    .fil76 {fill:#122E7F}
    .fil77 {fill:#122F7F}
    .fil78 {fill:#122F80}
    .fil79 {fill:#122F81}
    .fil80 {fill:#123081}
    .fil81 {fill:#133081}
    .fil82 {fill:#133082}
    .fil83 {fill:#133183}
    .fil84 {fill:#133184}
    .fil85 {fill:#133284}
    .fil86 {fill:#133285}
    .fil87 {fill:#143285}
    .fil88 {fill:#143286}
    .fil89 {fill:#143386}
    .fil90 {fill:#143387}
    .fil91 {fill:#143488}
    .fil92 {fill:#153488}
    .fil93 {fill:#153489}
    .fil94 {fill:#153589}
    .fil95 {fill:#15358A}
    .fil1 {fill:url(#id1)}
    .fil96 {fill:url(#id2)}
   
  </style><clipPath id="id0"><path d="M1541.58 2156.88c11.19,4.08 200.64,263.7 249.93,342.44 63.59,109.04 133.16,211.5 198.61,316.04 66.28,105.88 129.93,213.94 197.49,317.45 91.08,139.57 153.27,283.77 282.21,235.41 3.56,-10.01 -41.4,-180.29 -92.43,-367.52 -56.69,-207.96 -120.89,-436.82 -134.5,-490.15 -36.48,-143.06 -69.69,-287.78 -105.2,-431.2l-112.74 -417.95c-6.87,-37.9 -46.83,-37.86 -48.14,-39.27l-1640.85 25.67 -204.75 5.31c6.98,40.74 44.08,89.74 84.67,105.6 83.89,27.28 -7.97,-3.18 70.01,23.93 280.2,66.24 572.14,169.19 855.49,246.59 46.88,13.91 294.53,66.3 400.2,127.64z"/></clipPath><linearGradient id="id1" gradientUnits="userSpaceOnUse" x1="2252.78" y1="1004.96" x2="1322.63" y2="159.38"><stop offset="0" style="stop-opacity:1; stop-color:#4F99D2"/><stop offset="1" style="stop-opacity:1; stop-color:#173393"/></linearGradient><linearGradient id="id2" gradientUnits="userSpaceOnUse" x1="2506.45" y1="2357.9" x2="3071.36" y2="194.71"><stop offset="0" style="stop-opacity:1; stop-color:#2241A1"/><stop offset="1" style="stop-opacity:1; stop-color:#3EC5EA"/></linearGradient><bx:export><bx:file format="svg" path="gsm.svg" units="mm"/></bx:export></defs><g id="Camada_x0020_1"><path style="fill: rgb(216, 216, 216); stroke: rgb(0, 0, 0);" d="M 324.384 1689.65 L 2000 1700 L 2400 3200 L 2448.924 3151.162 L 2100 1600 L 3100 200 L 3000 200 L 2000 1500 L 300 1600 L 342.208 1700"/><g id="_2773441798304"><path class="fil0" d="M3148.67 4057.79c23.26,65.92 -13.12,737.28 8.93,815.09l228.83 0.74 -3.14 -1127.18 -339.46 -0.7 -240.03 667.84c-25.54,-26.41 -57.42,-135.4 -70.32,-170.29 -41.66,-112.71 -152.64,-422.14 -189.7,-496.26l-342.19 -0.17 5.67 1125.89 228.8 -0.19 -2.61 -805.09c33.3,29.06 133.28,309.74 147.26,345.35 40.57,103.29 89.5,254.23 135.75,344.67l162.24 -0.61 269.97 -699.08z"/><path class="fil0" d="M816.59 4457.63c-5.59,98.85 -34.99,163.65 -93.41,200.31 -60.5,37.96 -168.23,43.81 -245.81,23.42 -316.51,-83.21 -299.12,-624.43 -53.26,-728.39 69.14,-29.23 170.99,-31.73 242.82,-2.24 69.78,28.65 103.64,77.14 134.15,153.73l224.1 -0.98c8.09,-65.36 -36.36,-159.07 -65.8,-200.13 -125.06,-174.49 -387.6,-216.61 -594.91,-153.8 -295.56,89.56 -398.94,396.33 -354.66,689.19 87.31,577.33 791.37,531.08 968.25,288.23 49.82,-68.41 65.14,-90.58 63.43,-196.98 -1.34,-83.21 3.97,-176.45 -2.95,-261.48l-482.03 3.14 2.63 184.95 257.45 1.03z"/><path class="fil0" d="M1157.54 4517.27c-21.48,134.36 70.04,246.06 135.55,295.33 227.26,170.93 878.63,104.67 785.14,-345.85 -74.38,-358.41 -675.74,-200.68 -653.68,-434.9 5.39,-57.3 58.96,-90.76 118.53,-101.27 259.37,-45.72 251.17,88.55 278.02,135.27l238.73 0.14c-7.14,-120.85 -52.83,-220.9 -161.13,-281.65 -183.64,-103.02 -511.29,-93.07 -645.24,84.92 -65.83,87.49 -88.14,222.6 -33.94,331.93 115.23,232.48 482.98,171.19 593.74,277.27 41.85,40.09 36.91,124.47 -5.19,165.14 -36.48,35.25 -103.28,47.17 -164.33,48.73 -200.75,5.13 -217.82,-68.53 -253.94,-176.83l-232.25 1.77z"/></g><g id="LOGO"><path class="fil1" d="M131.6 1655.26c70.57,-3.42 139.8,-4.38 209.42,-7.69 308.12,-14.65 982.37,-43.35 1295.71,-60.02 117.88,-3.13 340.81,2.65 394.22,-36.45 80.3,-56.05 156.68,-202.17 324.99,-418.04l737.48 -967.39 107.13 -144.2c-50.84,-24.88 -93.45,-29.71 -139.47,-6.09l-1445.21 760.15c-129.92,72.57 -250.13,131.28 -385.41,202.79 -34.63,18.31 -61.79,35.6 -95.15,52.68l-963.17 506.73c-27.8,24.52 -45.28,60.21 -40.56,117.53z"/><g><g style="clip-path:url(#id0)"><polygon class="fil2" points="1612.53,863.09 1616.17,869.91 123.37,1666.07 119.74,1659.24 "/><polygon id="_1" class="fil2" points="1614.85,867.44 1618.81,874.87 126.02,1671.03 122.05,1663.6 "/><polygon id="_2" class="fil3" points="1617.48,872.39 1621.45,879.83 128.65,1675.98 124.69,1668.55 "/><polygon id="_3" class="fil4" points="1620.13,877.34 1624.1,884.78 131.3,1680.93 127.34,1673.5 "/><polygon id="_4" class="fil4" points="1622.78,882.31 1626.74,889.74 133.95,1685.89 129.98,1678.46 "/><polygon id="_5" class="fil4" points="1625.41,887.26 1629.38,894.69 136.58,1690.84 132.62,1683.41 "/><polygon id="_6" class="fil4" points="1628.06,892.22 1632.03,899.65 139.23,1695.79 135.27,1688.36 "/><polygon id="_7" class="fil4" points="1630.7,897.17 1634.66,904.6 141.87,1700.75 137.9,1693.32 "/><polygon id="_8" class="fil5" points="1633.34,902.12 1637.31,909.55 144.51,1705.71 140.55,1698.27 "/><polygon id="_9" class="fil5" points="1635.99,907.08 1639.95,914.51 147.15,1710.67 143.2,1703.23 "/><polygon id="_10" class="fil6" points="1638.63,912.03 1642.59,919.46 149.8,1715.62 145.83,1708.19 "/><polygon id="_11" class="fil6" points="1641.27,916.98 1645.24,924.41 152.44,1720.57 148.48,1713.14 "/><polygon id="_12" class="fil7" points="1643.91,921.94 1647.88,929.37 155.08,1725.53 151.12,1718.1 "/><polygon id="_13" class="fil7" points="1646.56,926.89 1650.52,934.33 157.73,1730.48 153.76,1723.05 "/><polygon id="_14" class="fil7" points="1649.19,931.85 1653.16,939.28 160.36,1735.43 156.4,1728 "/><polygon id="_15" class="fil7" points="1651.84,936.81 1655.81,944.24 163.01,1740.39 159.05,1732.96 "/><polygon id="_16" class="fil7" points="1654.49,941.76 1658.44,949.19 165.65,1745.34 161.69,1737.91 "/><polygon id="_17" class="fil8" points="1657.12,946.72 1661.09,954.15 168.29,1750.29 164.33,1742.86 "/><polygon id="_18" class="fil8" points="1659.77,951.67 1663.74,959.1 170.94,1755.26 166.98,1747.82 "/><polygon id="_19" class="fil8" points="1662.41,956.62 1666.37,964.05 173.58,1760.21 169.61,1752.77 "/><polygon id="_20" class="fil8" points="1665.05,961.58 1669.02,969.01 176.22,1765.17 172.26,1757.74 "/><polygon id="_21" class="fil9" points="1667.7,966.53 1671.66,973.96 178.86,1770.12 174.91,1762.69 "/><polygon id="_22" class="fil9" points="1670.34,971.48 1674.3,978.91 181.51,1775.07 177.54,1767.64 "/><polygon id="_23" class="fil9" points="1672.98,976.44 1676.95,983.87 184.15,1780.03 180.19,1772.6 "/><polygon id="_24" class="fil9" points="1675.62,981.39 1679.59,988.83 186.79,1784.98 182.83,1777.55 "/><polygon id="_25" class="fil10" points="1678.27,986.35 1682.23,993.79 189.44,1789.93 185.47,1782.5 "/><polygon id="_26" class="fil11" points="1680.9,991.31 1684.87,998.74 192.07,1794.89 188.11,1787.46 "/><polygon id="_27" class="fil11" points="1683.55,996.26 1687.52,1003.69 194.72,1799.84 190.76,1792.41 "/><polygon id="_28" class="fil11" points="1686.2,1001.22 1690.15,1008.65 197.36,1804.79 193.4,1797.36 "/><polygon id="_29" class="fil11" points="1688.83,1006.17 1692.8,1013.6 200,1809.76 196.04,1802.32 "/><polygon id="_30" class="fil12" points="1691.48,1011.12 1695.44,1018.55 202.65,1814.71 198.69,1807.27 "/><polygon id="_31" class="fil12" points="1694.12,1016.08 1698.08,1023.51 205.29,1819.67 201.32,1812.24 "/><polygon id="_32" class="fil13" points="1696.76,1021.03 1700.73,1028.46 207.93,1824.62 203.97,1817.19 "/><polygon id="_33" class="fil13" points="1699.41,1025.98 1703.36,1033.41 210.57,1829.57 206.61,1822.14 "/><polygon id="_34" class="fil13" points="1702.05,1030.94 1706.01,1038.38 213.22,1834.53 209.25,1827.1 "/><polygon id="_35" class="fil14" points="1704.69,1035.89 1708.66,1043.33 215.86,1839.48 211.9,1832.05 "/><polygon id="_36" class="fil14" points="1707.33,1040.85 1711.29,1048.29 218.5,1844.43 214.53,1837 "/><polygon id="_37" class="fil14" points="1709.98,1045.81 1713.94,1053.24 221.15,1849.39 217.18,1841.96 "/><polygon id="_38" class="fil14" points="1712.61,1050.76 1716.58,1058.19 223.78,1854.34 219.82,1846.91 "/><polygon id="_39" class="fil15" points="1715.26,1055.72 1719.22,1063.15 226.43,1859.29 222.46,1851.86 "/><polygon id="_40" class="fil16" points="1717.91,1060.67 1721.86,1068.1 229.07,1864.26 225.11,1856.82 "/><polygon id="_41" class="fil16" points="1720.54,1065.62 1724.51,1073.05 231.71,1869.21 227.75,1861.78 "/><polygon id="_42" class="fil17" points="1723.19,1070.58 1727.15,1078.01 234.36,1874.17 230.39,1866.74 "/><polygon id="_43" class="fil17" points="1725.83,1075.53 1729.79,1082.96 237,1879.12 233.03,1871.69 "/><polygon id="_44" class="fil18" points="1728.47,1080.48 1732.44,1087.91 239.64,1884.07 235.68,1876.64 "/><polygon id="_45" class="fil18" points="1731.11,1085.44 1735.07,1092.88 242.28,1889.03 238.31,1881.6 "/><polygon id="_46" class="fil18" points="1733.76,1090.4 1737.72,1097.83 244.93,1893.98 240.96,1886.55 "/><polygon id="_47" class="fil19" points="1736.4,1095.35 1740.37,1102.79 247.57,1898.93 243.61,1891.5 "/><polygon id="_48" class="fil20" points="1739.04,1100.31 1743,1107.74 250.21,1903.89 246.24,1896.46 "/><polygon id="_49" class="fil20" points="1741.69,1105.26 1745.65,1112.69 252.86,1908.84 248.89,1901.41 "/><polygon id="_50" class="fil20" points="1744.32,1110.22 1748.29,1117.65 255.49,1913.8 251.53,1906.36 "/><polygon id="_51" class="fil20" points="1746.97,1115.17 1750.93,1122.6 258.14,1918.76 254.17,1911.32 "/><polygon id="_52" class="fil20" points="1749.62,1120.12 1753.57,1127.55 260.78,1923.71 256.82,1916.28 "/><polygon id="_53" class="fil21" points="1752.25,1125.08 1756.22,1132.51 263.42,1928.67 259.46,1921.24 "/><polygon id="_54" class="fil21" points="1754.9,1130.03 1758.86,1137.46 266.07,1933.62 262.1,1926.19 "/><polygon id="_55" class="fil22" points="1757.54,1134.98 1761.5,1142.41 268.71,1938.57 264.74,1931.14 "/><polygon id="_56" class="fil22" points="1760.18,1139.94 1764.15,1147.38 271.35,1943.53 267.39,1936.1 "/><polygon id="_57" class="fil23" points="1762.82,1144.9 1766.78,1152.33 273.99,1948.48 270.02,1941.05 "/><polygon id="_58" class="fil24" points="1765.47,1149.85 1769.43,1157.29 276.64,1953.43 272.67,1946 "/><polygon id="_59" class="fil24" points="1768.11,1154.81 1772.08,1162.24 279.28,1958.39 275.32,1950.96 "/><polygon id="_60" class="fil24" points="1770.75,1159.76 1774.71,1167.19 281.92,1963.34 277.95,1955.91 "/><polygon id="_61" class="fil24" points="1773.39,1164.72 1777.36,1172.15 284.56,1968.3 280.6,1960.86 "/><polygon id="_62" class="fil25" points="1776.03,1169.67 1780,1177.1 287.2,1973.26 283.24,1965.82 "/><polygon id="_63" class="fil25" points="1778.68,1174.62 1782.64,1182.05 289.85,1978.21 285.88,1970.78 "/><polygon id="_64" class="fil25" points="1781.32,1179.58 1785.28,1187.01 292.48,1983.17 288.53,1975.74 "/><polygon id="_65" class="fil25" points="1783.96,1184.53 1787.93,1191.96 295.13,1988.12 291.17,1980.69 "/><polygon id="_66" class="fil26" points="1786.61,1189.48 1790.57,1196.92 297.78,1993.07 293.81,1985.64 "/><polygon id="_67" class="fil26" points="1789.24,1194.44 1793.21,1201.88 300.41,1998.03 296.45,1990.6 "/><polygon id="_68" class="fil26" points="1791.89,1199.4 1795.86,1206.83 303.06,2002.98 299.1,1995.55 "/><polygon id="_69" class="fil26" points="1794.53,1204.35 1798.49,1211.79 305.7,2007.93 301.73,2000.5 "/><polygon id="_70" class="fil27" points="1797.17,1209.31 1801.14,1216.74 308.34,2012.89 304.38,2005.46 "/><polygon id="_71" class="fil27" points="1799.82,1214.26 1803.79,1221.69 310.98,2017.84 307.03,2010.41 "/><polygon id="_72" class="fil27" points="1802.46,1219.22 1806.42,1226.65 313.63,2022.8 309.66,2015.36 "/><polygon id="_73" class="fil27" points="1805.1,1224.17 1809.07,1231.6 316.27,2027.76 312.31,2020.33 "/><polygon id="_74" class="fil28" points="1807.74,1229.12 1811.71,1236.55 318.91,2032.71 314.95,2025.28 "/><polygon id="_75" class="fil29" points="1810.39,1234.08 1814.35,1241.51 321.56,2037.67 317.59,2030.24 "/><polygon id="_76" class="fil29" points="1813.03,1239.03 1816.99,1246.46 324.19,2042.62 320.24,2035.19 "/><polygon id="_77" class="fil30" points="1815.67,1243.98 1819.64,1251.42 326.84,2047.57 322.88,2040.14 "/><polygon id="_78" class="fil30" points="1818.32,1248.95 1822.28,1256.38 329.49,2052.53 325.52,2045.1 "/><polygon id="_79" class="fil31" points="1820.95,1253.9 1824.92,1261.33 332.12,2057.48 328.16,2050.05 "/><polygon id="_80" class="fil31" points="1823.6,1258.86 1827.57,1266.29 334.77,2062.43 330.81,2055 "/><polygon id="_81" class="fil31" points="1826.24,1263.81 1830.2,1271.24 337.41,2067.39 333.44,2059.96 "/><polygon id="_82" class="fil31" points="1828.88,1268.76 1832.85,1276.19 340.05,2072.35 336.09,2064.91 "/><polygon id="_83" class="fil31" points="1831.53,1273.72 1835.49,1281.15 342.69,2077.31 338.74,2069.86 "/><polygon id="_84" class="fil32" points="1834.17,1278.67 1838.13,1286.1 345.34,2082.26 341.37,2074.83 "/><polygon id="_85" class="fil33" points="1836.81,1283.62 1840.78,1291.05 347.98,2087.21 344.02,2079.78 "/><polygon id="_86" class="fil33" points="1839.45,1288.58 1843.42,1296.01 350.62,2092.17 346.66,2084.74 "/><polygon id="_87" class="fil33" points="1842.1,1293.53 1846.06,1300.96 353.27,2097.12 349.3,2089.69 "/><polygon id="_88" class="fil34" points="1844.74,1298.48 1848.7,1305.92 355.9,2102.07 351.95,2094.64 "/><polygon id="_89" class="fil34" points="1847.38,1303.45 1851.34,1310.88 358.55,2107.03 354.59,2099.6 "/><polygon id="_90" class="fil35" points="1850.03,1308.4 1853.99,1315.83 361.2,2111.98 357.23,2104.55 "/><polygon id="_91" class="fil35" points="1852.66,1313.36 1856.63,1320.79 363.83,2116.93 359.87,2109.5 "/><polygon id="_92" class="fil36" points="1855.31,1318.31 1859.27,1325.74 366.48,2121.89 362.51,2114.46 "/><polygon id="_93" class="fil37" points="1857.95,1323.26 1861.91,1330.69 369.12,2126.85 365.15,2119.41 "/><polygon id="_94" class="fil37" points="1860.59,1328.22 1864.56,1335.65 371.76,2131.81 367.8,2124.36 "/><polygon id="_95" class="fil37" points="1863.24,1333.17 1867.19,1340.6 374.4,2136.76 370.44,2129.33 "/><polygon id="_96" class="fil37" points="1865.88,1338.12 1869.84,1345.55 377.05,2141.71 373.08,2134.28 "/><polygon id="_97" class="fil38" points="1868.52,1343.08 1872.49,1350.51 379.69,2146.67 375.73,2139.24 "/><polygon id="_98" class="fil38" points="1871.16,1348.03 1875.12,1355.47 382.33,2151.62 378.36,2144.19 "/><polygon id="_99" class="fil38" points="1873.81,1352.98 1877.77,1360.42 384.98,2156.57 381.01,2149.14 "/><polygon id="_100" class="fil39" points="1876.45,1357.95 1880.41,1365.38 387.61,2161.53 383.66,2154.1 "/><polygon id="_101" class="fil39" points="1879.09,1362.9 1883.05,1370.33 390.26,2166.48 386.29,2159.05 "/><polygon id="_102" class="fil40" points="1881.74,1367.86 1885.7,1375.29 392.91,2171.43 388.94,2164 "/><polygon id="_103" class="fil40" points="1884.37,1372.81 1888.34,1380.24 395.54,2176.39 391.58,2168.96 "/><polygon id="_104" class="fil40" points="1887.02,1377.76 1890.98,1385.19 398.19,2181.35 394.22,2173.91 "/><polygon id="_105" class="fil40" points="1889.66,1382.72 1893.62,1390.15 400.83,2186.31 396.86,2178.87 "/><polygon id="_106" class="fil41" points="1892.3,1387.67 1896.27,1395.1 403.47,2191.26 399.51,2183.83 "/><polygon id="_107" class="fil42" points="1894.95,1392.62 1898.9,1400.05 406.11,2196.21 402.15,2188.78 "/><polygon id="_108" class="fil42" points="1897.59,1397.58 1901.55,1405.01 408.76,2201.17 404.79,2193.74 "/><polygon id="_109" class="fil42" points="1900.23,1402.53 1904.2,1409.97 411.4,2206.12 407.44,2198.69 "/><polygon id="_110" class="fil42" points="1902.87,1407.49 1906.83,1414.92 414.04,2211.07 410.07,2203.64 "/><polygon id="_111" class="fil43" points="1905.52,1412.45 1909.48,1419.88 416.69,2216.03 412.72,2208.6 "/><polygon id="_112" class="fil43" points="1908.15,1417.4 1912.12,1424.83 419.32,2220.98 415.36,2213.55 "/><polygon id="_113" class="fil43" points="1910.8,1422.36 1914.76,1429.79 421.97,2225.93 418,2218.5 "/><polygon id="_114" class="fil43" points="1913.45,1427.31 1917.41,1434.74 424.62,2230.9 420.65,2223.46 "/><polygon id="_115" class="fil44" points="1916.08,1432.26 1920.05,1439.69 427.25,2235.85 423.29,2228.41 "/><polygon id="_116" class="fil44" points="1918.73,1437.22 1922.69,1444.65 429.9,2240.81 425.93,2233.37 "/><polygon id="_117" class="fil44" points="1921.37,1442.17 1925.33,1449.6 432.54,2245.76 428.57,2238.33 "/><polygon id="_118" class="fil44" points="1924.01,1447.12 1927.98,1454.55 435.18,2250.71 431.22,2243.28 "/><polygon id="_119" class="fil44" points="1926.66,1452.08 1930.61,1459.51 437.82,2255.67 433.86,2248.24 "/><polygon id="_120" class="fil45" points="1929.29,1457.03 1933.26,1464.47 440.46,2260.62 436.5,2253.19 "/><polygon id="_121" class="fil45" points="1931.94,1461.99 1935.91,1469.42 443.11,2265.57 439.15,2258.14 "/><polygon id="_122" class="fil46" points="1934.58,1466.95 1938.54,1474.38 445.75,2270.53 441.78,2263.1 "/><polygon id="_123" class="fil46" points="1937.22,1471.9 1941.19,1479.33 448.39,2275.48 444.43,2268.05 "/><polygon id="_124" class="fil47" points="1939.86,1476.86 1943.83,1484.29 451.03,2280.43 447.07,2273 "/><polygon id="_125" class="fil47" points="1942.51,1481.81 1946.47,1489.24 453.68,2285.4 449.71,2277.96 "/><polygon id="_126" class="fil47" points="1945.15,1486.76 1949.12,1494.19 456.32,2290.35 452.36,2282.91 "/><polygon id="_127" class="fil47" points="1947.79,1491.72 1951.76,1499.15 458.96,2295.31 455,2287.87 "/><polygon id="_128" class="fil47" points="1950.44,1496.67 1954.4,1504.1 461.61,2300.26 457.64,2292.83 "/><polygon id="_129" class="fil48" points="1953.07,1501.62 1957.04,1509.05 464.24,2305.21 460.28,2297.78 "/><polygon id="_130" class="fil49" points="1955.72,1506.58 1959.69,1514.02 466.89,2310.17 462.93,2302.74 "/><polygon id="_131" class="fil49" points="1958.37,1511.53 1962.32,1518.97 469.53,2315.12 465.57,2307.69 "/><polygon id="_132" class="fil49" points="1961,1516.49 1964.97,1523.92 472.17,2320.07 468.21,2312.64 "/><polygon id="_133" class="fil50" points="1963.65,1521.45 1967.62,1528.88 474.82,2325.03 470.86,2317.6 "/><polygon id="_134" class="fil50" points="1966.29,1526.4 1970.25,1533.83 477.46,2329.98 473.49,2322.55 "/><polygon id="_135" class="fil50" points="1968.93,1531.36 1972.9,1538.79 480.1,2334.93 476.14,2327.5 "/><polygon id="_136" class="fil50" points="1971.57,1536.31 1975.54,1543.74 482.74,2339.9 478.78,2332.46 "/><polygon id="_137" class="fil51" points="1974.22,1541.26 1978.18,1548.69 485.39,2344.85 481.42,2337.42 "/><polygon id="_138" class="fil52" points="1976.86,1546.22 1980.82,1553.65 488.02,2349.81 484.07,2342.37 "/><polygon id="_139" class="fil52" points="1979.5,1551.17 1983.47,1558.6 490.67,2354.76 486.71,2347.33 "/><polygon id="_140" class="fil52" points="1982.15,1556.12 1986.11,1563.55 493.32,2359.71 489.35,2352.28 "/><polygon id="_141" class="fil52" points="1984.78,1561.08 1988.75,1568.52 495.95,2364.67 491.99,2357.24 "/><polygon id="_142" class="fil53" points="1987.43,1566.04 1991.4,1573.47 498.6,2369.62 494.64,2362.19 "/><polygon id="_143" class="fil53" points="1990.08,1570.99 1994.03,1578.43 501.24,2374.57 497.28,2367.14 "/><polygon id="_144" class="fil53" points="1992.71,1575.95 1996.68,1583.38 503.88,2379.53 499.92,2372.1 "/><polygon id="_145" class="fil54" points="1995.36,1580.9 1999.33,1588.33 506.53,2384.48 502.57,2377.05 "/><polygon id="_146" class="fil54" points="1998,1585.86 2001.96,1593.29 509.17,2389.44 505.2,2382 "/><polygon id="_147" class="fil55" points="2000.64,1590.81 2004.61,1598.24 511.81,2394.4 507.85,2386.96 "/><polygon id="_148" class="fil55" points="2003.28,1595.76 2007.24,1603.19 514.45,2399.35 510.49,2391.92 "/><polygon id="_149" class="fil55" points="2005.93,1600.72 2009.89,1608.15 517.1,2404.31 513.13,2396.88 "/><polygon id="_150" class="fil55" points="2008.57,1605.67 2012.53,1613.1 519.73,2409.26 515.78,2401.83 "/><polygon id="_151" class="fil56" points="2011.21,1610.62 2015.17,1618.05 522.38,2414.21 518.41,2406.78 "/><polygon id="_152" class="fil57" points="2013.86,1615.58 2017.82,1623.02 525.03,2419.17 521.06,2411.74 "/><polygon id="_153" class="fil57" points="2016.49,1620.54 2020.46,1627.97 527.66,2424.12 523.7,2416.69 "/><polygon id="_154" class="fil58" points="2019.14,1625.49 2023.1,1632.93 530.31,2429.07 526.34,2421.64 "/><polygon id="_155" class="fil59" points="2021.79,1630.45 2025.74,1637.88 532.95,2434.03 528.99,2426.6 "/><polygon id="_156" class="fil59" points="2024.42,1635.4 2028.39,1642.83 535.59,2438.98 531.63,2431.55 "/><polygon id="_157" class="fil59" points="2027.07,1640.36 2031.03,1647.79 538.24,2443.94 534.27,2436.5 "/><polygon id="_158" class="fil59" points="2029.71,1645.31 2033.67,1652.74 540.88,2448.9 536.91,2441.46 "/><polygon id="_159" class="fil59" points="2032.35,1650.26 2036.32,1657.69 543.52,2453.85 539.56,2446.42 "/><polygon id="_160" class="fil60" points="2034.99,1655.22 2038.95,1662.65 546.16,2458.81 542.19,2451.38 "/><polygon id="_161" class="fil60" points="2037.64,1660.17 2041.6,1667.6 548.81,2463.76 544.84,2456.33 "/><polygon id="_162" class="fil60" points="2040.28,1665.12 2044.24,1672.56 551.44,2468.71 547.49,2461.28 "/><polygon id="_163" class="fil60" points="2042.92,1670.08 2046.88,1677.52 554.09,2473.67 550.12,2466.24 "/><polygon id="_164" class="fil61" points="2045.57,1675.04 2049.53,1682.47 556.74,2478.62 552.77,2471.19 "/><polygon id="_165" class="fil61" points="2048.2,1679.99 2052.17,1687.43 559.37,2483.57 555.41,2476.14 "/><polygon id="_166" class="fil61" points="2050.85,1684.95 2054.81,1692.38 562.02,2488.53 558.05,2481.1 "/><polygon id="_167" class="fil62" points="2053.5,1689.9 2057.45,1697.33 564.66,2493.48 560.7,2486.05 "/><polygon id="_168" class="fil62" points="2056.13,1694.86 2060.1,1702.29 567.3,2498.44 563.34,2491 "/><polygon id="_169" class="fil63" points="2058.78,1699.81 2062.74,1707.24 569.95,2503.4 565.98,2495.97 "/><polygon id="_170" class="fil64" points="2061.42,1704.76 2065.38,1712.19 572.59,2508.35 568.62,2500.92 "/><polygon id="_171" class="fil64" points="2064.06,1709.72 2068.03,1717.15 575.23,2513.31 571.27,2505.88 "/><polygon id="_172" class="fil64" points="2066.7,1714.67 2070.66,1722.1 577.87,2518.26 573.9,2510.83 "/><polygon id="_173" class="fil65" points="2069.35,1719.62 2073.31,1727.06 580.52,2523.21 576.55,2515.78 "/><polygon id="_174" class="fil65" points="2071.99,1724.59 2075.95,1732.02 583.15,2528.17 579.2,2520.74 "/><polygon id="_175" class="fil66" points="2074.63,1729.54 2078.59,1736.97 585.8,2533.12 581.83,2525.69 "/><polygon id="_176" class="fil66" points="2077.28,1734.49 2081.24,1741.93 588.45,2538.07 584.48,2530.64 "/><polygon id="_177" class="fil66" points="2079.91,1739.45 2083.88,1746.88 591.08,2543.03 587.12,2535.6 "/><polygon id="_178" class="fil67" points="2082.56,1744.4 2086.52,1751.83 593.73,2547.99 589.76,2540.55 "/><polygon id="_179" class="fil67" points="2085.19,1749.36 2089.16,1756.79 596.36,2552.94 592.4,2545.5 "/><polygon id="_180" class="fil67" points="2087.84,1754.31 2091.81,1761.74 599.01,2557.9 595.05,2550.47 "/><polygon id="_181" class="fil67" points="2090.49,1759.26 2094.45,1766.69 601.66,2562.85 597.69,2555.42 "/><polygon id="_182" class="fil68" points="2093.12,1764.22 2097.09,1771.65 604.29,2567.81 600.33,2560.38 "/><polygon id="_183" class="fil68" points="2095.77,1769.17 2099.74,1776.6 606.94,2572.76 602.98,2565.33 "/><polygon id="_184" class="fil68" points="2098.41,1774.12 2102.37,1781.56 609.58,2577.71 605.61,2570.28 "/><polygon id="_185" class="fil68" points="2101.05,1779.09 2105.02,1786.52 612.22,2582.67 608.26,2575.24 "/><polygon id="_186" class="fil69" points="2103.7,1784.04 2107.66,1791.47 614.86,2587.62 610.91,2580.19 "/><polygon id="_187" class="fil70" points="2106.34,1788.99 2110.3,1796.43 617.51,2592.57 613.54,2585.14 "/><polygon id="_188" class="fil70" points="2108.98,1793.95 2112.95,1801.38 620.15,2597.53 616.19,2590.1 "/><polygon id="_189" class="fil70" points="2111.62,1798.9 2115.59,1806.33 622.79,2602.49 618.83,2595.05 "/><polygon id="_190" class="fil71" points="2114.27,1803.86 2118.23,1811.29 625.44,2607.44 621.47,2600 "/><polygon id="_191" class="fil72" points="2116.9,1808.81 2120.87,1816.24 628.07,2612.4 624.11,2604.97 "/><polygon id="_192" class="fil72" points="2119.55,1813.76 2123.52,1821.19 630.72,2617.35 626.76,2609.92 "/><polygon id="_193" class="fil72" points="2122.2,1818.72 2126.16,1826.15 633.37,2622.31 629.4,2614.88 "/><polygon id="_194" class="fil72" points="2124.83,1823.67 2128.8,1831.11 636,2627.26 632.04,2619.83 "/><polygon id="_195" class="fil72" points="2127.48,1828.62 2131.45,1836.06 638.65,2632.21 634.69,2624.78 "/><polygon id="_196" class="fil71" points="2130.12,1833.59 2134.08,1841.02 641.29,2637.17 637.32,2629.74 "/><polygon id="_197" class="fil70" points="2132.76,1838.54 2136.73,1845.97 643.93,2642.12 639.97,2634.69 "/><polygon id="_198" class="fil70" points="2135.41,1843.49 2139.37,1850.93 646.57,2647.07 642.62,2639.64 "/><polygon id="_199" class="fil70" points="2138.05,1848.45 2142.01,1855.88 649.22,2652.03 645.25,2644.6 "/><polygon id="_200" class="fil69" points="2140.69,1853.4 2144.66,1860.83 651.86,2656.99 647.9,2649.55 "/><polygon id="_201" class="fil68" points="2143.33,1858.36 2147.3,1865.79 654.5,2661.95 650.54,2654.51 "/><polygon id="_202" class="fil68" points="2145.98,1863.31 2149.94,1870.74 657.15,2666.9 653.18,2659.47 "/><polygon id="_203" class="fil68" points="2148.61,1868.26 2152.58,1875.69 659.78,2671.85 655.82,2664.42 "/><polygon id="_204" class="fil68" points="2151.26,1873.22 2155.23,1880.65 662.43,2676.81 658.47,2669.38 "/><polygon id="_205" class="fil67" points="2153.91,1878.17 2157.86,1885.61 665.07,2681.76 661.11,2674.33 "/><polygon id="_206" class="fil67" points="2156.54,1883.13 2160.51,1890.56 667.71,2686.71 663.75,2679.28 "/><polygon id="_207" class="fil67" points="2159.19,1888.09 2163.15,1895.52 670.36,2691.67 666.4,2684.24 "/><polygon id="_208" class="fil67" points="2161.83,1893.04 2165.79,1900.47 673,2696.62 669.03,2689.19 "/><polygon id="_209" class="fil66" points="2164.47,1898 2168.44,1905.43 675.64,2701.57 671.68,2694.14 "/><polygon id="_210" class="fil66" points="2167.12,1902.95 2171.07,1910.38 678.28,2706.54 674.32,2699.1 "/><polygon id="_211" class="fil66" points="2169.76,1907.9 2173.72,1915.33 680.93,2711.49 676.96,2704.05 "/><polygon id="_212" class="fil65" points="2172.4,1912.86 2176.37,1920.29 683.57,2716.45 679.61,2709.01 "/><polygon id="_213" class="fil65" points="2175.04,1917.81 2179,1925.24 686.21,2721.4 682.24,2713.97 "/><polygon id="_214" class="fil64" points="2177.69,1922.76 2181.65,1930.19 688.86,2726.35 684.89,2718.92 "/><polygon id="_215" class="fil64" points="2180.32,1927.72 2184.29,1935.15 691.49,2731.31 687.53,2723.88 "/><polygon id="_216" class="fil64" points="2182.97,1932.67 2186.93,1940.11 694.14,2736.26 690.17,2728.83 "/><polygon id="_217" class="fil63" points="2185.62,1937.63 2189.57,1945.06 696.78,2741.21 692.82,2733.78 "/><polygon id="_218" class="fil62" points="2188.25,1942.59 2192.22,1950.02 699.42,2746.17 695.46,2738.74 "/><polygon id="_219" class="fil62" points="2190.9,1947.54 2194.86,1954.97 702.07,2751.12 698.1,2743.69 "/><polygon id="_220" class="fil61" points="2193.54,1952.5 2197.5,1959.93 704.71,2756.07 700.74,2748.64 "/><polygon id="_221" class="fil61" points="2196.18,1957.45 2200.15,1964.88 707.35,2761.04 703.39,2753.6 "/><polygon id="_222" class="fil61" points="2198.83,1962.4 2202.78,1969.83 709.99,2765.99 706.03,2758.55 "/><polygon id="_223" class="fil60" points="2201.47,1967.36 2205.43,1974.79 712.64,2770.95 708.67,2763.51 "/><polygon id="_224" class="fil60" points="2204.11,1972.31 2208.08,1979.74 715.28,2775.9 711.32,2768.47 "/><polygon id="_225" class="fil60" points="2206.75,1977.26 2210.71,1984.69 717.92,2780.85 713.95,2773.42 "/><polygon id="_226" class="fil60" points="2209.4,1982.22 2213.36,1989.66 720.57,2785.81 716.6,2778.38 "/><polygon id="_227" class="fil59" points="2212.03,1987.17 2216,1994.61 723.2,2790.76 719.24,2783.33 "/><polygon id="_228" class="fil59" points="2214.68,1992.13 2218.64,1999.56 725.85,2795.71 721.88,2788.28 "/><polygon id="_229" class="fil59" points="2217.33,1997.09 2221.28,2004.52 728.49,2800.67 724.53,2793.24 "/><polygon id="_230" class="fil59" points="2219.96,2002.04 2223.93,2009.47 731.13,2805.62 727.17,2798.19 "/><polygon id="_231" class="fil59" points="2222.61,2007 2226.57,2014.43 733.78,2810.57 729.81,2803.14 "/><polygon id="_232" class="fil58" points="2225.25,2011.95 2229.21,2019.38 736.42,2815.54 732.45,2808.1 "/><polygon id="_233" class="fil57" points="2227.89,2016.9 2231.86,2024.33 739.06,2820.49 735.1,2813.06 "/><polygon id="_234" class="fil57" points="2230.54,2021.86 2234.49,2029.29 741.7,2825.45 737.73,2818.01 "/><polygon id="_235" class="fil56" points="2233.18,2026.81 2237.14,2034.24 744.35,2830.4 740.38,2822.97 "/><polygon id="_236" class="fil55" points="2235.82,2031.76 2239.79,2039.19 746.99,2835.35 743.03,2827.92 "/><polygon id="_237" class="fil55" points="2238.46,2036.72 2242.42,2044.16 749.63,2840.31 745.66,2832.88 "/><polygon id="_238" class="fil55" points="2241.1,2041.68 2245.07,2049.11 752.27,2845.26 748.31,2837.83 "/><polygon id="_239" class="fil55" points="2243.74,2046.63 2247.71,2054.06 754.91,2850.21 750.95,2842.78 "/><polygon id="_240" class="fil54" points="2246.39,2051.59 2250.35,2059.02 757.56,2855.17 753.59,2847.74 "/><polygon id="_241" class="fil54" points="2249.03,2056.54 2252.99,2063.97 760.19,2860.12 756.24,2852.69 "/><polygon id="_242" class="fil53" points="2251.67,2061.5 2255.64,2068.93 762.84,2865.08 758.88,2857.64 "/><polygon id="_243" class="fil53" points="2254.32,2066.45 2258.28,2073.88 765.49,2870.04 761.52,2862.6 "/><polygon id="_244" class="fil53" points="2256.95,2071.4 2260.92,2078.83 768.12,2874.99 764.16,2867.56 "/><polygon id="_245" class="fil52" points="2259.6,2076.36 2263.57,2083.79 770.77,2879.95 766.81,2872.51 "/><polygon id="_246" class="fil52" points="2262.24,2081.31 2266.2,2088.74 773.41,2884.9 769.44,2877.47 "/><polygon id="_247" class="fil52" points="2264.88,2086.26 2268.85,2093.69 776.05,2889.85 772.09,2882.42 "/><polygon id="_248" class="fil52" points="2267.53,2091.22 2271.5,2098.66 778.7,2894.81 774.74,2887.38 "/><polygon id="_249" class="fil51" points="2270.17,2096.18 2274.13,2103.61 781.34,2899.76 777.37,2892.33 "/><polygon id="_250" class="fil50" points="2272.81,2101.13 2276.78,2108.56 783.98,2904.71 780.02,2897.28 "/><polygon id="_251" class="fil50" points="2275.45,2106.09 2279.42,2113.52 786.62,2909.67 782.66,2902.24 "/><polygon id="_252" class="fil50" points="2278.1,2111.04 2282.06,2118.47 789.27,2914.62 785.3,2907.19 "/><polygon id="_253" class="fil50" points="2280.74,2116 2284.7,2123.43 791.9,2919.58 787.95,2912.14 "/><polygon id="_254" class="fil49" points="2283.38,2120.95 2287.35,2128.38 794.55,2924.54 790.59,2917.1 "/><polygon id="_255" class="fil49" points="2286.03,2125.9 2289.99,2133.33 797.2,2929.49 793.23,2922.06 "/><polygon id="_256" class="fil49" points="2288.66,2130.86 2292.63,2138.29 799.83,2934.45 795.87,2927.01 "/><polygon id="_257" class="fil48" points="2291.31,2135.81 2295.28,2143.24 802.48,2939.4 798.52,2931.97 "/><polygon id="_258" class="fil47" points="2293.95,2140.76 2297.91,2148.2 805.12,2944.35 801.15,2936.92 "/><polygon id="_259" class="fil47" points="2296.59,2145.72 2300.56,2153.16 807.76,2949.31 803.8,2941.88 "/><polygon id="_260" class="fil47" points="2299.24,2150.68 2303.21,2158.11 810.41,2954.26 806.45,2946.83 "/><polygon id="_261" class="fil47" points="2301.88,2155.63 2305.84,2163.07 813.05,2959.21 809.08,2951.78 "/><polygon id="_262" class="fil47" points="2304.52,2160.59 2308.49,2168.02 815.69,2964.17 811.73,2956.74 "/><polygon id="_263" class="fil46" points="2307.16,2165.54 2311.13,2172.97 818.33,2969.12 814.37,2961.69 "/><polygon id="_264" class="fil46" points="2309.81,2170.5 2313.77,2177.93 820.98,2974.08 817.01,2966.64 "/><polygon id="_265" class="fil45" points="2312.45,2175.45 2316.41,2182.88 823.61,2979.04 819.66,2971.61 "/><polygon id="_266" class="fil45" points="2315.09,2180.4 2319.05,2187.83 826.26,2983.99 822.3,2976.56 "/><polygon id="_267" class="fil44" points="2317.74,2185.36 2321.7,2192.79 828.91,2988.95 824.94,2981.52 "/><polygon id="_268" class="fil44" points="2320.37,2190.31 2324.34,2197.74 831.54,2993.9 827.58,2986.47 "/><polygon id="_269" class="fil44" points="2323.02,2195.26 2326.98,2202.7 834.19,2998.85 830.22,2991.42 "/><polygon id="_270" class="fil44" points="2325.66,2200.23 2329.62,2207.66 836.83,3003.81 832.86,2996.38 "/><polygon id="_271" class="fil44" points="2328.3,2205.18 2332.27,2212.61 839.47,3008.76 835.51,3001.33 "/><polygon id="_272" class="fil43" points="2330.95,2210.13 2334.9,2217.57 842.11,3013.71 838.15,3006.28 "/><polygon id="_273" class="fil43" points="2333.59,2215.09 2337.55,2222.52 844.76,3018.67 840.79,3011.24 "/><polygon id="_274" class="fil43" points="2336.23,2220.04 2340.2,2227.47 847.4,3023.63 843.44,3016.19 "/><polygon id="_275" class="fil43" points="2338.87,2225 2342.83,2232.43 850.04,3028.58 846.07,3021.14 "/><polygon id="_276" class="fil42" points="2341.52,2229.95 2345.48,2237.38 852.69,3033.54 848.72,3026.11 "/><polygon id="_277" class="fil42" points="2344.16,2234.9 2348.12,2242.33 855.32,3038.49 851.37,3031.06 "/><polygon id="_278" class="fil42" points="2346.8,2239.86 2350.76,2247.29 857.97,3043.45 854,3036.02 "/><polygon id="_279" class="fil42" points="2349.45,2244.81 2353.41,2252.24 860.62,3048.4 856.65,3040.97 "/><polygon id="_280" class="fil41" points="2352.08,2249.76 2356.05,2257.2 863.25,3053.35 859.29,3045.92 "/><polygon id="_281" class="fil40" points="2354.73,2254.73 2358.69,2262.16 865.9,3058.31 861.93,3050.88 "/><polygon id="_282" class="fil40" points="2357.37,2259.68 2361.33,2267.11 868.54,3063.26 864.57,3055.83 "/><polygon id="_283" class="fil40" points="2360.01,2264.63 2363.98,2272.07 871.18,3068.21 867.22,3060.78 "/><polygon id="_284" class="fil40" points="2362.66,2269.59 2366.61,2277.02 873.82,3073.17 869.86,3065.74 "/><polygon id="_285" class="fil39" points="2365.3,2274.54 2369.26,2281.97 876.47,3078.13 872.5,3070.69 "/><polygon id="_286" class="fil39" points="2367.94,2279.5 2371.91,2286.93 879.11,3083.08 875.15,3075.64 "/><polygon id="_287" class="fil38" points="2370.58,2284.45 2374.54,2291.88 881.75,3088.04 877.78,3080.61 "/><polygon id="_288" class="fil38" points="2373.23,2289.4 2377.19,2296.83 884.4,3092.99 880.43,3085.56 "/><polygon id="_289" class="fil38" points="2375.87,2294.36 2379.83,2301.79 887.03,3097.95 883.08,3090.52 "/><polygon id="_290" class="fil37" points="2378.51,2299.31 2382.47,2306.75 889.68,3102.9 885.71,3095.47 "/><polygon id="_291" class="fil37" points="2381.16,2304.26 2385.12,2311.7 892.33,3107.85 888.36,3100.42 "/><polygon id="_292" class="fil37" points="2383.79,2309.23 2387.76,2316.66 894.96,3112.81 891,3105.38 "/><polygon id="_293" class="fil37" points="2386.44,2314.18 2390.4,2321.61 897.61,3117.76 893.64,3110.33 "/><polygon id="_294" class="fil36" points="2389.08,2319.13 2393.04,2326.57 900.25,3122.71 896.28,3115.28 "/><polygon id="_295" class="fil35" points="2391.72,2324.09 2395.69,2331.52 902.89,3127.67 898.93,3120.24 "/><polygon id="_296" class="fil35" points="2394.37,2329.04 2398.32,2336.47 905.53,3132.63 901.57,3125.19 "/><polygon id="_297" class="fil34" points="2397,2334 2400.97,2341.43 908.17,3137.58 904.21,3130.15 "/><polygon id="_298" class="fil34" points="2399.65,2338.95 2403.62,2346.38 910.82,3142.54 906.86,3135.11 "/><polygon id="_299" class="fil33" points="2402.29,2343.9 2406.25,2351.33 913.46,3147.49 909.49,3140.06 "/><polygon id="_300" class="fil33" points="2404.93,2348.86 2408.9,2356.29 916.1,3152.45 912.14,3145.02 "/><polygon id="_301" class="fil33" points="2407.57,2353.81 2411.54,2361.25 918.74,3157.4 914.78,3149.97 "/><polygon id="_302" class="fil32" points="2410.22,2358.77 2414.18,2366.2 921.39,3162.35 917.42,3154.92 "/><polygon id="_303" class="fil31" points="2412.86,2363.73 2416.83,2371.16 924.03,3167.31 920.07,3159.88 "/><polygon id="_304" class="fil31" points="2415.5,2368.68 2419.47,2376.11 926.67,3172.26 922.71,3164.83 "/><polygon id="_305" class="fil31" points="2418.15,2373.63 2422.11,2381.07 929.32,3177.21 925.35,3169.78 "/><polygon id="_306" class="fil31" points="2420.78,2378.59 2424.75,2386.02 931.95,3182.18 927.99,3174.74 "/><polygon id="_307" class="fil31" points="2423.43,2383.54 2427.4,2390.97 934.6,3187.13 930.64,3179.69 "/><polygon id="_308" class="fil30" points="2426.08,2388.5 2430.03,2395.93 937.24,3192.08 933.28,3184.65 "/><polygon id="_309" class="fil30" points="2428.71,2393.45 2432.68,2400.88 939.88,3197.04 935.92,3189.61 "/><polygon id="_310" class="fil29" points="2431.36,2398.4 2435.33,2405.83 942.53,3201.99 938.57,3194.56 "/><polygon id="_311" class="fil29" points="2434,2403.36 2437.96,2410.79 945.17,3206.95 941.2,3199.52 "/><polygon id="_312" class="fil28" points="2436.64,2408.31 2440.61,2415.75 947.81,3211.9 943.85,3204.47 "/><polygon id="_313" class="fil27" points="2439.28,2413.27 2443.25,2420.7 950.45,3216.85 946.49,3209.42 "/><polygon id="_314" class="fil27" points="2441.93,2418.23 2445.89,2425.66 953.1,3221.81 949.13,3214.38 "/><polygon id="_315" class="fil27" points="2444.57,2423.18 2448.54,2430.61 955.74,3226.76 951.78,3219.33 "/><polygon id="_316" class="fil27" points="2447.21,2428.13 2451.18,2435.57 958.38,3231.71 954.42,3224.28 "/><polygon id="_317" class="fil26" points="2449.86,2433.09 2453.82,2440.52 961.03,3236.68 957.06,3229.24 "/><polygon id="_318" class="fil26" points="2452.49,2438.04 2456.46,2445.47 963.66,3241.63 959.7,3234.19 "/><polygon id="_319" class="fil26" points="2455.14,2443 2459.11,2450.43 966.31,3246.58 962.35,3239.15 "/><polygon id="_320" class="fil26" points="2457.79,2447.95 2461.74,2455.38 968.95,3251.54 964.99,3244.11 "/><polygon id="_321" class="fil25" points="2460.42,2452.9 2464.39,2460.33 971.59,3256.49 967.63,3249.06 "/><polygon id="_322" class="fil25" points="2463.07,2457.86 2467.04,2465.3 974.24,3261.45 970.28,3254.02 "/><polygon id="_323" class="fil25" points="2465.71,2462.81 2469.67,2470.25 976.88,3266.4 972.91,3258.97 "/><polygon id="_324" class="fil25" points="2468.35,2467.77 2472.32,2475.2 979.52,3271.35 975.56,3263.92 "/><polygon id="_325" class="fil24" points="2470.99,2472.73 2474.95,2480.16 982.16,3276.31 978.2,3268.88 "/><polygon id="_326" class="fil24" points="2473.64,2477.68 2477.6,2485.11 984.81,3281.26 980.84,3273.83 "/><polygon id="_327" class="fil24" points="2476.28,2482.64 2480.25,2490.07 987.44,3286.21 983.49,3278.78 "/><polygon id="_328" class="fil24" points="2478.92,2487.59 2482.88,2495.02 990.09,3291.18 986.12,3283.74 "/><polygon id="_329" class="fil23" points="2481.57,2492.54 2485.53,2499.97 992.74,3296.13 988.77,3288.7 "/><polygon id="_330" class="fil22" points="2484.2,2497.5 2488.17,2504.93 995.37,3301.09 991.41,3293.65 "/><polygon id="_331" class="fil22" points="2486.85,2502.45 2490.81,2509.88 998.02,3306.04 994.05,3298.61 "/><polygon id="_332" class="fil21" points="2489.5,2507.4 2493.45,2514.83 1000.66,3310.99 996.7,3303.56 "/><polygon id="_333" class="fil21" points="2492.13,2512.36 2496.1,2519.8 1003.3,3315.95 999.34,3308.52 "/><polygon id="_334" class="fil20" points="2494.78,2517.32 2498.74,2524.75 1005.95,3320.9 1001.98,3313.47 "/><polygon id="_335" class="fil20" points="2497.42,2522.27 2501.38,2529.7 1008.59,3325.85 1004.62,3318.42 "/><polygon id="_336" class="fil20" points="2500.06,2527.23 2504.03,2534.66 1011.23,3330.81 1007.27,3323.38 "/><polygon id="_337" class="fil20" points="2502.7,2532.18 2506.66,2539.61 1013.87,3335.76 1009.9,3328.33 "/><polygon id="_338" class="fil20" points="2505.35,2537.14 2509.31,2544.57 1016.52,3340.72 1012.55,3333.28 "/><polygon id="_339" class="fil19" points="2507.99,2542.09 2511.95,2549.52 1019.15,3345.68 1015.2,3338.24 "/><polygon id="_340" class="fil18" points="2510.63,2547.04 2514.59,2554.47 1021.8,3350.63 1017.83,3343.2 "/><polygon id="_341" class="fil18" points="2513.28,2552 2517.24,2559.43 1024.45,3355.59 1020.48,3348.15 "/><polygon id="_342" class="fil18" points="2515.91,2556.95 2519.88,2564.38 1027.08,3360.54 1023.12,3353.11 "/><polygon id="_343" class="fil17" points="2518.56,2561.9 2522.52,2569.33 1029.73,3365.49 1025.76,3358.06 "/><polygon id="_344" class="fil17" points="2521.21,2566.86 2525.16,2574.3 1032.37,3370.45 1028.41,3363.02 "/><polygon id="_345" class="fil16" points="2523.84,2571.82 2527.81,2579.25 1035.01,3375.4 1031.05,3367.97 "/><polygon id="_346" class="fil16" points="2526.49,2576.77 2530.45,2584.2 1037.66,3380.35 1033.69,3372.92 "/><polygon id="_347" class="fil15" points="2529.13,2581.73 2533.09,2589.16 1040.3,3385.31 1036.33,3377.88 "/><polygon id="_348" class="fil14" points="2531.77,2586.68 2535.74,2594.11 1042.94,3390.26 1038.98,3382.83 "/><polygon id="_349" class="fil14" points="2534.41,2591.64 2538.37,2599.07 1045.58,3395.22 1041.61,3387.78 "/><polygon id="_350" class="fil14" points="2537.06,2596.59 2541.02,2604.02 1048.23,3400.18 1044.26,3392.74 "/><polygon id="_351" class="fil14" points="2539.7,2601.54 2543.66,2608.97 1050.86,3405.13 1046.91,3397.7 "/><polygon id="_352" class="fil13" points="2542.34,2606.5 2546.3,2613.93 1053.51,3410.09 1049.54,3402.65 "/><polygon id="_353" class="fil13" points="2544.99,2611.45 2548.95,2618.88 1056.16,3415.04 1052.19,3407.61 "/><polygon id="_354" class="fil13" points="2547.62,2616.4 2551.59,2623.84 1058.79,3419.99 1054.83,3412.56 "/><polygon id="_355" class="fil12" points="2550.27,2621.36 2554.23,2628.8 1061.44,3424.95 1057.47,3417.52 "/><polygon id="_356" class="fil12" points="2552.91,2626.32 2556.87,2633.75 1064.07,3429.9 1060.12,3422.47 "/><polygon id="_357" class="fil11" points="2555.55,2631.27 2559.52,2638.7 1066.72,3434.85 1062.76,3427.42 "/><polygon id="_358" class="fil11" points="2558.2,2636.23 2562.16,2643.66 1069.37,3439.81 1065.4,3432.38 "/><polygon id="_359" class="fil11" points="2560.83,2641.18 2564.8,2648.61 1072,3444.76 1068.04,3437.33 "/><polygon id="_360" class="fil11" points="2563.48,2646.14 2567.45,2653.57 1074.65,3449.72 1070.69,3442.28 "/><polygon id="_361" class="fil10" points="2566.12,2651.09 2570.08,2658.52 1077.29,3454.68 1073.32,3447.25 "/><polygon id="_362" class="fil9" points="2568.76,2656.04 2572.73,2663.47 1079.93,3459.63 1075.97,3452.2 "/><polygon id="_363" class="fil9" points="2571.41,2661 2575.37,2668.43 1082.57,3464.59 1078.62,3457.15 "/><polygon id="_364" class="fil9" points="2574.05,2665.95 2578.01,2673.38 1085.22,3469.54 1081.25,3462.11 "/><polygon id="_365" class="fil9" points="2576.69,2670.9 2580.66,2678.34 1087.86,3474.49 1083.9,3467.06 "/><polygon id="_366" class="fil8" points="2579.33,2675.87 2583.3,2683.3 1090.5,3479.45 1086.54,3472.02 "/><polygon id="_367" class="fil8" points="2581.98,2680.82 2585.94,2688.25 1093.15,3484.4 1089.18,3476.97 "/><polygon id="_368" class="fil8" points="2584.61,2685.77 2588.58,2693.2 1095.78,3489.35 1091.82,3481.92 "/><polygon id="_369" class="fil8" points="2587.26,2690.73 2591.23,2698.16 1098.43,3494.31 1094.47,3486.88 "/><polygon id="_370" class="fil7" points="2589.91,2695.68 2593.87,2703.11 1101.08,3499.27 1097.11,3491.83 "/><polygon id="_371" class="fil7" points="2592.54,2700.64 2596.51,2708.07 1103.71,3504.22 1099.75,3496.78 "/><polygon id="_372" class="fil7" points="2595.19,2705.59 2599.16,2713.02 1106.36,3509.18 1102.4,3501.75 "/><polygon id="_373" class="fil7" points="2597.83,2710.54 2601.79,2717.97 1109,3514.13 1105.03,3506.7 "/><polygon id="_374" class="fil7" points="2600.47,2715.5 2604.44,2722.93 1111.64,3519.09 1107.68,3511.65 "/><polygon id="_375" class="fil6" points="2603.12,2720.45 2607.08,2727.88 1114.28,3524.04 1110.33,3516.61 "/><polygon id="_376" class="fil6" points="2605.76,2725.4 2609.72,2732.84 1116.93,3528.99 1112.96,3521.56 "/><polygon id="_377" class="fil5" points="2608.4,2730.37 2612.37,2737.8 1119.57,3533.95 1115.61,3526.52 "/><polygon id="_378" class="fil5" points="2611.04,2735.32 2615.01,2742.75 1122.21,3538.9 1118.25,3531.47 "/><polygon id="_379" class="fil4" points="2613.69,2740.27 2617.65,2747.7 1124.86,3543.85 1120.89,3536.42 "/><polygon id="_380" class="fil4" points="2616.32,2745.23 2620.29,2752.66 1127.49,3548.81 1123.53,3541.38 "/><polygon id="_381" class="fil4" points="2618.97,2750.18 2622.94,2757.61 1130.14,3553.77 1126.18,3546.33 "/><polygon id="_382" class="fil4" points="2621.62,2755.14 2625.58,2762.57 1132.79,3558.72 1128.82,3551.28 "/><polygon id="_383" class="fil4" points="2624.25,2760.09 2628.22,2767.52 1135.42,3563.68 1131.46,3556.25 "/><polygon id="_384" class="fil3" points="2626.9,2765.04 2630.86,2772.47 1138.07,3568.63 1134.11,3561.2 "/><polygon id="_385" class="fil2" points="2629.54,2770 2633.5,2777.43 1140.71,3573.59 1136.74,3566.15 "/><polygon id="_386" class="fil2" points="2632.18,2774.95 2636.15,2782.39 1143.35,3578.54 1139.39,3571.11 "/><polygon id="_387" class="fil2" points="2634.83,2779.9 2638.78,2787.34 1145.99,3583.49 1142.03,3576.06 "/><polygon id="_388" class="fil73" points="2637.47,2784.87 2641.43,2792.3 1148.64,3588.45 1144.67,3581.02 "/><polygon id="_389" class="fil73" points="2640.11,2789.82 2644.08,2797.25 1151.28,3593.4 1147.32,3585.97 "/><polygon id="_390" class="fil73" points="2642.75,2794.77 2646.71,2802.21 1153.92,3598.35 1149.95,3590.92 "/><polygon id="_391" class="fil73" points="2645.4,2799.73 2649.36,2807.16 1156.57,3603.31 1152.6,3595.88 "/><polygon id="_392" class="fil74" points="2648.03,2804.68 2652,2812.11 1159.2,3608.27 1155.24,3600.83 "/><polygon id="_393" class="fil75" points="2650.68,2809.64 2654.64,2817.07 1161.85,3613.22 1157.88,3605.79 "/><polygon id="_394" class="fil75" points="2653.33,2814.59 2657.28,2822.02 1164.49,3618.18 1160.53,3610.75 "/><polygon id="_395" class="fil75" points="2655.96,2819.54 2659.93,2826.97 1167.13,3623.13 1163.17,3615.7 "/><polygon id="_396" class="fil75" points="2658.61,2824.5 2662.57,2831.93 1169.78,3628.09 1165.81,3620.66 "/><polygon id="_397" class="fil76" points="2661.25,2829.45 2665.21,2836.89 1172.42,3633.04 1168.45,3625.61 "/><polygon id="_398" class="fil76" points="2663.89,2834.41 2667.86,2841.84 1175.06,3637.99 1171.1,3630.56 "/><polygon id="_399" class="fil76" points="2666.54,2839.37 2670.49,2846.8 1177.7,3642.95 1173.74,3635.52 "/><polygon id="_400" class="fil77" points="2669.18,2844.32 2673.14,2851.75 1180.35,3647.9 1176.38,3640.47 "/><polygon id="_401" class="fil77" points="2671.82,2849.27 2675.79,2856.71 1182.99,3652.85 1179.03,3645.42 "/><polygon id="_402" class="fil78" points="2674.46,2854.23 2678.42,2861.66 1185.63,3657.82 1181.66,3650.38 "/><polygon id="_403" class="fil78" points="2677.11,2859.18 2681.07,2866.61 1188.28,3662.77 1184.31,3655.33 "/><polygon id="_404" class="fil78" points="2679.74,2864.14 2683.71,2871.57 1190.91,3667.72 1186.95,3660.29 "/><polygon id="_405" class="fil78" points="2682.39,2869.09 2686.35,2876.52 1193.56,3672.68 1189.59,3665.25 "/><polygon id="_406" class="fil79" points="2685.04,2874.04 2688.99,2881.47 1196.2,3677.63 1192.24,3670.2 "/><polygon id="_407" class="fil80" points="2687.67,2879 2691.64,2886.43 1198.84,3682.59 1194.88,3675.16 "/><polygon id="_408" class="fil80" points="2690.32,2883.95 2694.28,2891.39 1201.49,3687.54 1197.52,3680.11 "/><polygon id="_409" class="fil81" points="2692.96,2888.91 2696.92,2896.34 1204.13,3692.49 1200.16,3685.06 "/><polygon id="_410" class="fil82" points="2695.6,2893.87 2699.57,2901.3 1206.77,3697.45 1202.81,3690.02 "/><polygon id="_411" class="fil82" points="2698.25,2898.82 2702.2,2906.25 1209.41,3702.4 1205.45,3694.97 "/><polygon id="_412" class="fil82" points="2700.89,2903.77 2704.85,2911.21 1212.06,3707.35 1208.09,3699.92 "/><polygon id="_413" class="fil82" points="2703.53,2908.73 2707.5,2916.16 1214.7,3712.32 1210.74,3704.88 "/><polygon id="_414" class="fil82" points="2706.17,2913.68 2710.13,2921.11 1217.34,3717.27 1213.37,3709.83 "/><polygon id="_415" class="fil83" points="2708.81,2918.64 2712.78,2926.07 1219.98,3722.22 1216.02,3714.79 "/><polygon id="_416" class="fil83" points="2711.45,2923.59 2715.42,2931.02 1222.62,3727.18 1218.66,3719.75 "/><polygon id="_417" class="fil83" points="2714.1,2928.54 2718.06,2935.97 1225.27,3732.13 1221.3,3724.7 "/><polygon id="_418" class="fil83" points="2716.74,2933.5 2720.7,2940.94 1227.9,3737.09 1223.95,3729.66 "/><polygon id="_419" class="fil84" points="2719.38,2938.45 2723.35,2945.89 1230.55,3742.04 1226.59,3734.61 "/><polygon id="_420" class="fil84" points="2722.03,2943.41 2725.99,2950.84 1233.2,3746.99 1229.23,3739.56 "/><polygon id="_421" class="fil84" points="2724.66,2948.37 2728.63,2955.8 1235.83,3751.95 1231.87,3744.52 "/><polygon id="_422" class="fil85" points="2727.31,2953.32 2731.28,2960.75 1238.48,3756.9 1234.52,3749.47 "/><polygon id="_423" class="fil85" points="2729.96,2958.27 2733.91,2965.71 1241.12,3761.85 1237.16,3754.42 "/><polygon id="_424" class="fil86" points="2732.59,2963.23 2736.56,2970.66 1243.76,3766.82 1239.8,3759.38 "/><polygon id="_425" class="fil87" points="2735.24,2968.18 2739.21,2975.61 1246.41,3771.77 1242.45,3764.34 "/><polygon id="_426" class="fil87" points="2737.88,2973.14 2741.84,2980.57 1249.05,3776.72 1245.08,3769.29 "/><polygon id="_427" class="fil87" points="2740.52,2978.09 2744.49,2985.52 1251.69,3781.68 1247.73,3774.25 "/><polygon id="_428" class="fil88" points="2743.16,2983.04 2747.13,2990.47 1254.33,3786.63 1250.37,3779.2 "/><polygon id="_429" class="fil88" points="2745.81,2988 2749.77,2995.44 1256.98,3791.59 1253.01,3784.16 "/><polygon id="_430" class="fil89" points="2748.45,2992.96 2752.41,3000.39 1259.61,3796.54 1255.66,3789.11 "/><polygon id="_431" class="fil89" points="2751.09,2997.91 2755.06,3005.34 1262.26,3801.49 1258.3,3794.06 "/><polygon id="_432" class="fil89" points="2753.74,3002.87 2757.7,3010.3 1264.91,3806.45 1260.94,3799.02 "/><polygon id="_433" class="fil90" points="2756.37,3007.82 2760.34,3015.25 1267.54,3811.4 1263.58,3803.97 "/><polygon id="_434" class="fil90" points="2759.02,3012.77 2762.99,3020.21 1270.19,3816.36 1266.23,3808.92 "/><polygon id="_435" class="fil90" points="2761.66,3017.73 2765.62,3025.16 1272.83,3821.32 1268.86,3813.88 "/><polygon id="_436" class="fil90" points="2764.3,3022.68 2768.27,3030.11 1275.47,3826.27 1271.51,3818.84 "/><polygon id="_437" class="fil91" points="2766.95,3027.64 2770.92,3035.07 1278.12,3831.22 1274.16,3823.79 "/><polygon id="_438" class="fil91" points="2769.59,3032.59 2773.55,3040.02 1280.76,3836.18 1276.79,3828.75 "/><polygon id="_439" class="fil91" points="2772.23,3037.54 2776.2,3044.97 1283.4,3841.13 1279.44,3833.7 "/><polygon id="_440" class="fil91" points="2774.87,3042.5 2778.84,3049.94 1286.04,3846.09 1282.08,3838.66 "/><polygon id="_441" class="fil92" points="2777.52,3047.46 2781.48,3054.89 1288.69,3851.04 1284.72,3843.61 "/><polygon id="_442" class="fil93" points="2780.16,3052.41 2784.12,3059.84 1291.32,3855.99 1287.37,3848.56 "/><polygon id="_443" class="fil93" points="2782.8,3057.37 2786.76,3064.8 1293.97,3860.95 1290.01,3853.52 "/><polygon id="_444" class="fil93" points="2785.45,3062.32 2789.41,3069.75 1296.62,3865.9 1292.65,3858.47 "/><polygon id="_445" class="fil94" points="2788.08,3067.28 2792.05,3074.71 1299.25,3870.86 1295.29,3863.42 "/><polygon id="_446" class="fil95" points="2790.73,3072.23 2794.69,3079.66 1301.9,3875.82 1297.93,3868.38 "/><polygon id="_447" class="fil95" points="2793.37,3077.18 2797.33,3084.61 1304.54,3880.77 1300.57,3873.34 "/><polygon id="_448" class="fil95" points="2796.01,3082.14 2799.98,3089.57 1307.18,3885.73 1303.22,3878.29 "/><polygon id="_449" class="fil95" points="2798.66,3087.09 2802.62,3094.52 1309.83,3890.68 1305.86,3883.25 "/><polygon id="_450" class="fil95" points="2801.3,3092.04 2805.26,3099.48 1312.47,3895.63 1308.5,3888.2 "/><polygon id="_451" class="fil94" points="2803.94,3097 2807.91,3104.44 1315.11,3900.59 1311.15,3893.16 "/><polygon id="_452" class="fil93" points="2806.58,3101.96 2810.54,3109.39 1317.75,3905.54 1313.78,3898.11 "/><polygon id="_453" class="fil93" points="2809.23,3106.91 2813.19,3114.34 1320.4,3910.49 1316.43,3903.06 "/><polygon id="_454" class="fil93" points="2811.87,3111.87 2815.83,3119.3 1323.03,3915.45 1319.08,3908.02 "/><polygon id="_455" class="fil92" points="2814.51,3116.82 2818.47,3124.25 1325.68,3920.4 1321.71,3912.97 "/><polygon id="_456" class="fil91" points="2817.16,3121.78 2821.12,3129.21 1328.33,3925.36 1324.36,3917.92 "/><polygon id="_457" class="fil91" points="2819.79,3126.73 2823.76,3134.16 1330.96,3930.32 1327,3922.89 "/><polygon id="_458" class="fil91" points="2822.44,3131.68 2826.4,3139.11 1333.61,3935.27 1329.64,3927.84 "/><polygon id="_459" class="fil91" points="2825.08,3136.64 2829.04,3144.07 1336.25,3940.23 1332.28,3932.79 "/><polygon id="_460" class="fil90" points="2827.72,3141.59 2831.69,3149.02 1338.89,3945.18 1334.93,3937.75 "/><polygon id="_461" class="fil90" points="2830.37,3146.54 2834.32,3153.98 1341.53,3950.13 1337.57,3942.7 "/><polygon id="_462" class="fil90" points="2833.01,3151.51 2836.97,3158.94 1344.18,3955.09 1340.21,3947.66 "/><polygon id="_463" class="fil90" points="2835.65,3156.46 2839.62,3163.89 1346.82,3960.04 1342.86,3952.61 "/><polygon id="_464" class="fil89" points="2838.29,3161.41 2842.25,3168.84 1349.46,3964.99 1345.49,3957.56 "/><polygon id="_465" class="fil89" points="2840.94,3166.37 2844.9,3173.8 1352.11,3969.95 1348.14,3962.52 "/><polygon id="_466" class="fil89" points="2843.58,3171.32 2842.56,3169.42 1349.77,3965.58 1350.79,3967.47 "/></g></g><path class="fil96" d="M2461.3 3371.18c70.48,-29.42 110.41,-102.36 129.9,-194.18l145.29 -627.4c35.8,-138.65 60.21,-281.02 95.37,-419.07 34.4,-135.14 65.74,-282.32 94.04,-418.96 58.86,-284.14 129.38,-568.3 190.55,-846.42l136.69 -634.75c15.17,-71.78 7.89,-177.85 -52.58,-208.93l-102.21 137.91c-123.45,156.59 -263.95,407.92 -391.76,574.96 -175.17,228.96 -345.85,473.76 -518.39,702.37 -154.47,204.67 -116.32,167.24 -53,446.66 35.89,158.37 79.53,330.89 121.92,488.51l116.27 614.21 87.91 385.09z"/></g></g></svg>